PathFileType	4	(X/Y/Z)	s11c0201.trc
DataRate	CameraRate	NumFrames	NumMarkers	Units	OrigDataRate	OrigDataStartFrame	OrigNumFrames
200	200	4	48	mm	200	750	2000
Frame#	Time	racr			lacr			c7			jug			rlel			rdr			llel			ldr			s2			lic			ric			lasi			rasi			rpsi			lpsi			rgt			lgt			rth1			rth2			rth3			rth4			rlfc			rmfc			rsh1			rsh2			rsh3			rsh4			rlmal			rcal			rtoe			rmt5			lth1			lth2			lth4			lth3			llfc			lmfc			llmal			lcal			lmt5			lsh1			lsh2			lsh3			lsh4			ltoe			SBIKE			LBIKE			RBIKE			
		X1	Y1	Z1	X2	Y2	Z2	X3	Y3	Z3	X4	Y4	Z4	X5	Y5	Z5	X6	Y6	Z6	X7	Y7	Z7	X8	Y8	Z8	X9	Y9	Z9	X10	Y10	Z10	X11	Y11	Z11	X12	Y12	Z12	X13	Y13	Z13	X14	Y14	Z14	X15	Y15	Z15	X16	Y16	Z16	X17	Y17	Z17	X18	Y18	Z18	X19	Y19	Z19	X20	Y20	Z20	X21	Y21	Z21	X22	Y22	Z22	X23	Y23	Z23	X24	Y24	Z24	X25	Y25	Z25	X26	Y26	Z26	X27	Y27	Z27	X28	Y28	Z28	X29	Y29	Z29	X30	Y30	Z30	X31	Y31	Z31	X32	Y32	Z32	X33	Y33	Z33	X34	Y34	Z34	X35	Y35	Z35	X36	Y36	Z36	X37	Y37	Z37	X38	Y38	Z38	X39	Y39	Z39	X40	Y40	Z40	X41	Y41	Z41	X42	Y42	Z42	X43	Y43	Z43	X44	Y44	Z44	X45	Y45	Z45	X46	Y46	Z46	X47	Y47	Z47	X48	Y48	Z48	
750	3.7500	524.431347	1297.379777	-97.949757	492.695009	1357.986463	-405.850133	466.061615	1434.124640	-235.935006	448.336624	1250.889349	-272.809641	531.553050	1061.025114	60.724493	751.154060	968.439764	-62.609693	483.172159	1115.339470	-591.047567	734.298351	963.244199	-477.379348	-113.007623	1211.769960	-244.047720	81.753219	1233.170264	-464.735752	116.413956	1207.301438	-55.616556	123.151541	1159.405961	-444.655396	135.039198	1157.957232	-109.596784	-65.837022	1276.579087	-192.778570	-73.217794	1271.614519	-287.296871	83.179571	1089.100084	-39.193144	6.150451	1077.894673	-462.499144	241.308481	1089.610255	-17.636584	298.793793	1030.979650	-55.765595	370.074642	983.161819	-65.596425	308.561919	1064.688057	-69.171040	468.738060	932.419767	-87.702487	466.943654	910.943767	-216.712704	373.767187	805.076149	-76.908735	332.090427	729.756989	-97.271010	259.674587	681.662661	-98.008760	353.374221	716.160496	-128.238475	158.910396	598.688292	-107.014255	107.104507	633.349376	-157.026807	257.522901	388.667658	-152.237768	196.512818	429.782848	-82.904655	93.885862	948.119020	-477.961598	151.711610	885.621191	-471.170332	184.766285	901.744531	-466.890563	170.839067	798.190155	-460.454331	235.429184	673.810762	-431.982665	235.263537	663.651938	-302.132907	178.287560	240.357053	-423.676540	135.131185	179.993683	-386.591811	342.326021	188.004855	-457.254677	213.195233	550.475813	-454.708714	227.754154	466.796992	-441.262158	199.334018	383.210690	-439.593896	257.296561	467.305099	-416.767674	427.098613	239.899072	-389.245901	-215.628552	956.626822	-257.211267	-17.879755	80.603353	-460.954162	-17.778702	80.774613	-62.107875	
751	3.7550	523.981550	1297.731089	-93.504148	493.599615	1358.522350	-403.043407	466.044090	1434.555744	-232.595566	448.715785	1251.233535	-269.179495	529.156734	1059.596684	63.651849	750.969612	968.481012	-61.829442	483.831695	1116.829066	-590.399771	734.530181	963.553135	-478.534939	-112.809303	1212.686846	-248.891558	85.963986	1233.174430	-466.225766	113.719608	1209.212936	-56.382309	126.144101	1160.048244	-445.436206	133.008618	1160.502211	-111.256728	-65.769748	1277.273779	-197.484417	-71.584829	1272.191832	-292.132799	81.335511	1092.503641	-40.945273	7.922084	1077.647276	-464.565345	240.321048	1095.030895	-17.641029	298.353367	1037.221525	-56.223438	370.469466	990.641880	-65.791128	307.558062	1070.981388	-69.609718	470.511830	942.460332	-86.542842	470.855893	921.003151	-217.661653	377.618301	815.017883	-76.865474	336.272133	739.461451	-96.962861	263.910801	691.190358	-97.848339	357.869430	725.518967	-127.724763	163.947176	605.719733	-107.139350	111.189865	639.112645	-156.964918	267.522963	398.235033	-152.094390	204.840043	437.103008	-83.214386	91.518968	946.192860	-479.277507	147.941329	882.339331	-472.938503	181.448626	897.746797	-468.638218	165.281363	794.636991	-461.694680	227.252250	669.424099	-432.585719	226.905902	660.445153	-302.132275	169.212667	235.869394	-422.556477	126.327944	176.178444	-385.997217	333.544216	181.885878	-456.950672	204.315446	546.024906	-455.121617	218.644667	462.261935	-441.752284	189.869634	378.809584	-439.534080	248.508732	462.694019	-417.568549	419.032814	232.802696	-389.209805	-215.665122	956.689832	-257.295935	-17.894888	80.585281	-460.964986	-17.773343	80.783003	-62.106210	
752	3.7600	523.511329	1297.954777	-89.149462	494.578391	1358.937280	-400.232404	466.052806	1434.865001	-229.444645	449.124539	1251.448693	-265.695556	527.064660	1058.192690	66.330599	750.877240	968.688482	-61.115280	484.512849	1118.396131	-590.239584	734.779446	963.765790	-479.516710	-112.470003	1213.852508	-253.481167	90.031220	1233.096525	-467.654877	110.854129	1211.022377	-57.223033	128.959184	1160.401341	-445.816460	131.350752	1162.493399	-113.706006	-68.160305	1279.176882	-201.231023	-70.374419	1272.921768	-296.484295	79.453035	1095.876676	-42.662119	9.231081	1077.064086	-465.968330	238.275633	1100.578455	-19.113375	297.696621	1043.196506	-56.805133	370.667080	997.661271	-65.942216	306.677702	1077.149839	-69.830181	470.927827	951.745911	-85.177118	474.377555	930.612281	-218.336100	381.190530	824.919867	-76.863572	340.348255	749.091603	-96.463092	268.096956	700.469714	-97.575629	362.385047	734.488470	-126.916588	168.991133	612.087915	-107.298145	115.619060	644.033141	-156.720618	277.441853	406.782775	-152.756080	213.943277	444.280206	-83.374665	89.520415	944.795824	-480.864154	144.613986	879.605304	-474.748325	178.439944	894.313799	-470.373982	159.889338	791.594011	-463.338368	219.672944	665.642312	-433.420332	218.986007	658.513461	-302.585021	159.878086	232.044167	-421.299153	117.315548	173.346662	-385.330243	324.414952	176.244210	-456.701556	196.131927	542.392421	-455.771212	209.943833	458.623582	-442.340522	180.575332	375.408745	-439.722737	240.082946	458.934607	-418.438074	410.819084	226.058603	-389.359685	-215.782007	956.687659	-257.525452	-17.903281	80.576134	-461.001136	-17.755223	80.810694	-62.148347	
753	3.7650	523.009321	1298.126456	-84.906458	495.651925	1359.183475	-397.613977	466.245605	1434.989122	-226.535725	449.552584	1251.458347	-262.265431	525.457583	1056.820621	68.700592	750.870562	968.917700	-60.413207	485.372794	1120.014791	-590.492346	734.957207	963.827593	-480.107509	-111.775695	1214.581585	-258.198550	94.151124	1232.724949	-468.637453	107.935916	1212.751431	-58.265312	131.603793	1160.421113	-445.744499	129.335759	1164.888706	-114.932614	-70.043148	1280.561912	-203.485197	-69.112048	1273.929391	-300.733264	77.515566	1099.247410	-44.191536	10.840369	1076.872834	-467.745050	236.339817	1105.786611	-20.053263	297.025751	1048.804435	-57.309719	370.727967	1004.539550	-65.947368	305.639994	1083.132410	-69.895123	472.740544	961.280420	-85.206203	477.391094	939.990558	-218.542247	384.584876	834.598131	-76.814657	344.170278	758.465672	-95.684189	272.341027	709.371814	-97.283994	366.789803	743.824300	-125.089544	174.371109	617.750236	-107.362529	120.122402	648.138403	-156.672819	287.972959	415.110831	-153.159292	223.392758	450.872510	-83.551263	87.784565	943.747905	-482.597501	141.496084	877.406947	-476.823994	175.682217	891.467846	-472.307913	154.918072	789.100059	-465.123064	212.744334	662.530178	-434.353805	213.589538	656.279491	-303.867664	150.518927	229.422198	-420.166124	108.111887	171.347316	-384.829740	315.151963	171.125738	-456.629378	188.341962	539.617252	-456.579825	201.654559	455.723090	-442.999460	171.788102	372.704516	-439.952247	232.069535	455.793203	-419.481782	402.308727	219.897723	-389.671572	-215.398642	956.431149	-257.938690	-17.916233	80.595965	-461.061934	-17.722797	80.855644	-62.265406	
